<svg width="139" height="36" viewBox="0 0 139 36" fill="none" xmlns="http://www.w3.org/2000/svg">
<path d="M0 28.3028V7.0249H7.58442C9.23983 7.0249 10.6113 7.3262 11.6987 7.9288C12.7861 8.5314 13.6 9.35564 14.1403 10.4015C14.6805 11.4405 14.9506 12.611 14.9506 13.9132C14.9506 15.2223 14.6771 16.3998 14.1299 17.4457C13.5896 18.4846 12.7723 19.3089 11.6779 19.9184C10.5905 20.521 9.22251 20.8223 7.57403 20.8223H2.35844V18.1002H7.28312C8.329 18.1002 9.17749 17.9201 9.82857 17.56C10.4797 17.1929 10.9576 16.6942 11.2623 16.0639C11.5671 15.4336 11.7195 14.7167 11.7195 13.9132C11.7195 13.1098 11.5671 12.3963 11.2623 11.773C10.9576 11.1496 10.4762 10.6613 9.81818 10.308C9.1671 9.95477 8.30822 9.77815 7.24156 9.77815H3.21039V28.3028H0Z" fill="#12161D"/>
<path d="M24.2651 28.6249C22.6928 28.6249 21.3387 28.289 20.2028 27.6171C19.0738 26.9383 18.2011 25.9859 17.5846 24.76C16.9751 23.5271 16.6703 22.0829 16.6703 20.4275C16.6703 18.7929 16.9751 17.3522 17.5846 16.1054C18.2011 14.8587 19.0599 13.8855 20.1612 13.1859C21.2695 12.4864 22.5647 12.1366 24.047 12.1366C24.9474 12.1366 25.8201 12.2855 26.6651 12.5833C27.5102 12.8812 28.2686 13.3487 28.9405 13.9859C29.6123 14.6232 30.1422 15.4509 30.5301 16.4691C30.918 17.4803 31.1119 18.7098 31.1119 20.1574V21.2587H18.4262V18.9314H28.0677C28.0677 18.1141 27.9015 17.3903 27.569 16.76C27.2366 16.1227 26.769 15.6206 26.1664 15.2535C25.5708 14.8864 24.8712 14.7028 24.0677 14.7028C23.195 14.7028 22.4331 14.9175 21.782 15.347C21.1379 15.7695 20.6392 16.3236 20.2859 17.0093C19.9396 17.6881 19.7664 18.4258 19.7664 19.2223V21.0405C19.7664 22.1072 19.9535 23.0145 20.3275 23.7626C20.7084 24.5106 21.2383 25.082 21.9171 25.4769C22.5959 25.8647 23.389 26.0587 24.2963 26.0587C24.8851 26.0587 25.4219 25.9755 25.9067 25.8093C26.3915 25.6362 26.8106 25.3799 27.1638 25.0405C27.5171 24.7011 27.7872 24.282 27.9742 23.7833L30.9145 24.3132C30.679 25.179 30.2565 25.9375 29.647 26.5885C29.0444 27.2327 28.2859 27.7349 27.3716 28.095C26.4643 28.4483 25.4288 28.6249 24.2651 28.6249Z" fill="#12161D"/>
<path d="M33.6809 28.3028V12.3444H36.6835V14.8794H36.8498C37.1407 14.0206 37.6532 13.3452 38.3874 12.8535C39.1286 12.3548 39.9666 12.1054 40.9017 12.1054C41.0956 12.1054 41.3242 12.1123 41.5874 12.1262C41.8576 12.1401 42.0688 12.1574 42.2212 12.1781V15.1496C42.0965 15.1149 41.8749 15.0768 41.5563 15.0353C41.2376 14.9868 40.919 14.9626 40.6004 14.9626C39.8662 14.9626 39.2117 15.1184 38.6368 15.4301C38.0688 15.7349 37.6186 16.1608 37.2861 16.708C36.9537 17.2483 36.7874 17.8647 36.7874 18.5574V28.3028H33.6809Z" fill="#12161D"/>
<path d="M54.1409 21.6846V12.3444H57.2578V28.3028H54.2032V25.5392H54.037C53.6699 26.3911 53.0811 27.1011 52.2707 27.6691C51.4673 28.2301 50.4664 28.5106 49.2682 28.5106C48.243 28.5106 47.3357 28.2855 46.5461 27.8353C45.7634 27.3781 45.1469 26.7028 44.6967 25.8093C44.2534 24.9158 44.0318 23.811 44.0318 22.495V12.3444H47.1383V22.121C47.1383 23.2085 47.4396 24.0743 48.0422 24.7184C48.6448 25.3626 49.4275 25.6846 50.3902 25.6846C50.972 25.6846 51.5504 25.5392 52.1253 25.2483C52.7071 24.9574 53.1885 24.5175 53.5695 23.9288C53.9573 23.3401 54.1478 22.592 54.1409 21.6846Z" fill="#12161D"/>
<path d="M60.5541 28.3028V12.3444H63.5359V14.9418H63.7333C64.0658 14.0621 64.6095 13.3764 65.3645 12.8846C66.1194 12.3859 67.0233 12.1366 68.0761 12.1366C69.1428 12.1366 70.0363 12.3859 70.7567 12.8846C71.4839 13.3833 72.0207 14.0691 72.3671 14.9418H72.5333C72.9142 14.0898 73.5203 13.411 74.3515 12.9054C75.1826 12.3929 76.1731 12.1366 77.3229 12.1366C78.7705 12.1366 79.9515 12.5903 80.8658 13.4976C81.787 14.405 82.2476 15.773 82.2476 17.6015V28.3028H79.1411V17.8924C79.1411 16.8119 78.8467 16.0292 78.258 15.5444C77.6692 15.0595 76.9662 14.8171 76.1489 14.8171C75.1376 14.8171 74.3515 15.1288 73.7904 15.7522C73.2294 16.3686 72.9489 17.1617 72.9489 18.1314V28.3028H69.8528V17.695C69.8528 16.8292 69.5826 16.1331 69.0424 15.6067C68.5021 15.0803 67.7991 14.8171 66.9333 14.8171C66.3446 14.8171 65.8008 14.973 65.3021 15.2846C64.8103 15.5894 64.4121 16.0154 64.1073 16.5626C63.8095 17.1098 63.6606 17.7435 63.6606 18.4639V28.3028H60.5541Z" fill="#12161D"/>
<path d="M88.64 18.8275V28.3028H85.5335V12.3444H88.5153V14.9418H88.7127C89.0798 14.0968 89.6547 13.418 90.4374 12.9054C91.227 12.3929 92.2209 12.1366 93.4192 12.1366C94.5067 12.1366 95.459 12.3652 96.2764 12.8223C97.0937 13.2725 97.7274 13.9444 98.1777 14.8379C98.6279 15.7314 98.853 16.8362 98.853 18.1522V28.3028H95.7465V18.5262C95.7465 17.3695 95.4452 16.4656 94.8426 15.8145C94.24 15.1565 93.4123 14.8275 92.3595 14.8275C91.6391 14.8275 90.9984 14.9833 90.4374 15.295C89.8833 15.6067 89.4435 16.0639 89.1179 16.6665C88.7993 17.2621 88.64 17.9825 88.64 18.8275Z" fill="#12161D"/>
<path d="M106.786 28.6561C105.774 28.6561 104.86 28.4691 104.043 28.095C103.225 27.7141 102.578 27.1634 102.1 26.4431C101.629 25.7227 101.393 24.8396 101.393 23.7937C101.393 22.8933 101.567 22.1522 101.913 21.5704C102.259 20.9885 102.727 20.5279 103.316 20.1885C103.904 19.8491 104.562 19.5929 105.29 19.4197C106.017 19.2465 106.758 19.1149 107.513 19.0249C108.469 18.9141 109.245 18.824 109.84 18.7548C110.436 18.6786 110.869 18.5574 111.139 18.3911C111.409 18.2249 111.544 17.9548 111.544 17.5807V17.508C111.544 16.6007 111.288 15.8976 110.775 15.3989C110.27 14.9002 109.515 14.6509 108.51 14.6509C107.464 14.6509 106.64 14.8829 106.038 15.347C105.442 15.8041 105.03 16.3132 104.801 16.8743L101.882 16.2093C102.228 15.2396 102.734 14.4569 103.399 13.8613C104.071 13.2587 104.843 12.8223 105.716 12.5522C106.588 12.2751 107.506 12.1366 108.469 12.1366C109.106 12.1366 109.781 12.2128 110.495 12.3652C111.215 12.5106 111.887 12.7807 112.51 13.1756C113.141 13.5704 113.657 14.1349 114.058 14.8691C114.46 15.5963 114.661 16.5418 114.661 17.7054V28.3028H111.627V26.121H111.503C111.302 26.5227 111 26.9175 110.599 27.3054C110.197 27.6933 109.681 28.0154 109.051 28.2717C108.42 28.5279 107.665 28.6561 106.786 28.6561ZM107.461 26.1626C108.32 26.1626 109.054 25.9929 109.664 25.6535C110.28 25.3141 110.748 24.8708 111.066 24.3236C111.392 23.7695 111.554 23.1773 111.554 22.547V20.4898C111.444 20.6007 111.229 20.7046 110.91 20.8015C110.599 20.8916 110.242 20.9712 109.84 21.0405C109.438 21.1028 109.047 21.1617 108.666 21.2171C108.285 21.2656 107.967 21.3072 107.71 21.3418C107.108 21.418 106.557 21.5461 106.058 21.7262C105.567 21.9063 105.172 22.166 104.874 22.5054C104.583 22.8379 104.438 23.2812 104.438 23.8353C104.438 24.6041 104.722 25.1859 105.29 25.5807C105.858 25.9686 106.581 26.1626 107.461 26.1626Z" fill="#12161D"/>
<path d="M129.879 16.2405L127.064 16.7392C126.946 16.379 126.759 16.0362 126.503 15.7106C126.253 15.3851 125.914 15.1184 125.485 14.9106C125.055 14.7028 124.518 14.5989 123.874 14.5989C122.995 14.5989 122.26 14.7963 121.672 15.1911C121.083 15.579 120.788 16.0812 120.788 16.6976C120.788 17.231 120.986 17.6604 121.381 17.9859C121.775 18.3115 122.413 18.5781 123.292 18.7859L125.827 19.3678C127.296 19.7072 128.39 20.2301 129.111 20.9366C129.831 21.6431 130.191 22.5608 130.191 23.6898C130.191 24.6457 129.914 25.4976 129.36 26.2457C128.813 26.9868 128.047 27.5686 127.064 27.9911C126.087 28.4136 124.955 28.6249 123.666 28.6249C121.879 28.6249 120.421 28.2439 119.292 27.482C118.163 26.7132 117.471 25.6223 117.214 24.2093L120.217 23.7522C120.404 24.5349 120.788 25.1271 121.37 25.5288C121.952 25.9236 122.711 26.121 123.646 26.121C124.664 26.121 125.478 25.9097 126.087 25.4872C126.697 25.0578 127.001 24.5349 127.001 23.9184C127.001 23.4197 126.814 23.0007 126.44 22.6613C126.073 22.3219 125.509 22.0656 124.747 21.8924L122.046 21.3002C120.556 20.9608 119.455 20.4206 118.742 19.6794C118.035 18.9383 117.682 17.9998 117.682 16.8639C117.682 15.9219 117.945 15.0976 118.472 14.3911C118.998 13.6846 119.725 13.134 120.653 12.7392C121.582 12.3375 122.645 12.1366 123.843 12.1366C125.568 12.1366 126.925 12.5106 127.916 13.2587C128.906 13.9998 129.561 14.9937 129.879 16.2405Z" fill="#12161D"/>
<path d="M113.155 11.1429V9.31429L125.041 2L136.926 9.31429V34H111.326" stroke="#12161D" stroke-width="2.56"/>
</svg>
