<svg width="122" height="31" viewBox="0 0 122 31" fill="none" xmlns="http://www.w3.org/2000/svg">
<path d="M0.0947266 25.1399V6.52173H6.73109C8.17957 6.52173 9.37958 6.78536 10.3311 7.31264C11.2826 7.83991 11.9947 8.56112 12.4675 9.47627C12.9402 10.3854 13.1765 11.4096 13.1765 12.549C13.1765 13.6945 12.9372 14.7248 12.4584 15.6399C11.9856 16.549 11.2705 17.2702 10.3129 17.8035C9.36139 18.3308 8.16442 18.5945 6.722 18.5945H2.15836V16.2126H6.46745C7.38261 16.2126 8.12503 16.0551 8.69473 15.7399C9.26442 15.4187 9.68261 14.9823 9.94927 14.4308C10.2159 13.8793 10.3493 13.252 10.3493 12.549C10.3493 11.846 10.2159 11.2217 9.94927 10.6763C9.68261 10.1308 9.26139 9.70355 8.68564 9.39446C8.11594 9.08537 7.36442 8.93082 6.43109 8.93082H2.90382V25.1399H0.0947266Z" fill="white"/>
<path d="M21.3267 25.4217C19.951 25.4217 18.7661 25.1278 17.7722 24.5399C16.7843 23.946 16.0207 23.1126 15.4813 22.0399C14.9479 20.9611 14.6813 19.6975 14.6813 18.249C14.6813 16.8187 14.9479 15.5581 15.4813 14.4672C16.0207 13.3763 16.7722 12.5248 17.7358 11.9126C18.7055 11.3005 19.8388 10.9945 21.1358 10.9945C21.9237 10.9945 22.6873 11.1248 23.4267 11.3854C24.1661 11.646 24.8298 12.0551 25.4176 12.6126C26.0055 13.1702 26.4692 13.8945 26.8085 14.7854C27.1479 15.6702 27.3176 16.746 27.3176 18.0126V18.9763H16.2176V16.9399H24.654C24.654 16.2248 24.5085 15.5914 24.2176 15.0399C23.9267 14.4823 23.5176 14.0429 22.9904 13.7217C22.4692 13.4005 21.857 13.2399 21.154 13.2399C20.3904 13.2399 19.7237 13.4278 19.154 13.8035C18.5904 14.1732 18.154 14.6581 17.8449 15.2581C17.5419 15.852 17.3904 16.4975 17.3904 17.1945V18.7854C17.3904 19.7187 17.554 20.5126 17.8813 21.1672C18.2146 21.8217 18.6782 22.3217 19.2722 22.6672C19.8661 23.0066 20.5601 23.1763 21.354 23.1763C21.8692 23.1763 22.3389 23.1035 22.7631 22.9581C23.1873 22.8066 23.554 22.5823 23.8631 22.2854C24.1722 21.9884 24.4085 21.6217 24.5722 21.1854L27.1449 21.649C26.9389 22.4066 26.5692 23.0702 26.0358 23.6399C25.5085 24.2035 24.8449 24.6429 24.0449 24.9581C23.251 25.2672 22.3449 25.4217 21.3267 25.4217Z" fill="white"/>
<path d="M29.5655 25.1399V11.1763H32.1928V13.3945H32.3383C32.5928 12.6429 33.0413 12.052 33.6837 11.6217C34.3322 11.1854 35.0655 10.9672 35.8837 10.9672C36.0534 10.9672 36.2534 10.9732 36.4837 10.9854C36.7201 10.9975 36.9049 11.0126 37.0383 11.0308V13.6308C36.9292 13.6005 36.7352 13.5672 36.4565 13.5308C36.1777 13.4884 35.8989 13.4672 35.6201 13.4672C34.9777 13.4672 34.4049 13.6035 33.9019 13.8763C33.4049 14.1429 33.011 14.5157 32.7201 14.9945C32.4292 15.4672 32.2837 16.0066 32.2837 16.6126V25.1399H29.5655Z" fill="white"/>
<path d="M47.468 19.349V11.1763H50.1953V25.1399H47.5225V22.7217H47.3771C47.0559 23.4672 46.5407 24.0884 45.8316 24.5854C45.1286 25.0763 44.2528 25.3217 43.2044 25.3217C42.3074 25.3217 41.5135 25.1248 40.8225 24.7308C40.1377 24.3308 39.5983 23.7399 39.2044 22.9581C38.8165 22.1763 38.6225 21.2096 38.6225 20.0581V11.1763H41.3407V19.7308C41.3407 20.6823 41.6044 21.4399 42.1316 22.0035C42.6589 22.5672 43.3438 22.849 44.1862 22.849C44.6953 22.849 45.2013 22.7217 45.7044 22.4672C46.2135 22.2126 46.6347 21.8278 46.968 21.3126C47.3074 20.7975 47.4741 20.1429 47.468 19.349Z" fill="white"/>
<path d="M53.0795 25.1399V11.1763H55.6886V13.449H55.8614C56.1523 12.6793 56.628 12.0793 57.2886 11.649C57.9492 11.2126 58.7402 10.9945 59.6614 10.9945C60.5947 10.9945 61.3765 11.2126 62.0068 11.649C62.6432 12.0854 63.1129 12.6854 63.4159 13.449H63.5614C63.8947 12.7035 64.425 12.1096 65.1523 11.6672C65.8795 11.2187 66.7462 10.9945 67.7523 10.9945C69.0189 10.9945 70.0523 11.3914 70.8523 12.1854C71.6583 12.9793 72.0614 14.1763 72.0614 15.7763V25.1399H69.3432V16.0308C69.3432 15.0854 69.0856 14.4005 68.5705 13.9763C68.0553 13.552 67.4402 13.3399 66.725 13.3399C65.8402 13.3399 65.1523 13.6126 64.6614 14.1581C64.1705 14.6975 63.925 15.3914 63.925 16.2399V25.1399H61.2159V15.8581C61.2159 15.1005 60.9795 14.4914 60.5068 14.0308C60.0341 13.5702 59.4189 13.3399 58.6614 13.3399C58.1462 13.3399 57.6705 13.4763 57.2341 13.749C56.8038 14.0157 56.4553 14.3884 56.1886 14.8672C55.928 15.346 55.7977 15.9005 55.7977 16.5308V25.1399H53.0795Z" fill="white"/>
<path d="M77.6547 16.849V25.1399H74.9365V11.1763H77.5456V13.449H77.7184C78.0396 12.7096 78.5426 12.1157 79.2275 11.6672C79.9184 11.2187 80.7881 10.9945 81.8365 10.9945C82.7881 10.9945 83.6214 11.1945 84.3365 11.5945C85.0517 11.9884 85.6062 12.5763 86.0002 13.3581C86.3941 14.1399 86.5911 15.1066 86.5911 16.2581V25.1399H83.8729V16.5854C83.8729 15.5732 83.6093 14.7823 83.082 14.2126C82.5547 13.6369 81.8305 13.349 80.9093 13.349C80.279 13.349 79.7184 13.4854 79.2275 13.7581C78.7426 14.0308 78.3578 14.4308 78.0729 14.9581C77.7941 15.4793 77.6547 16.1096 77.6547 16.849Z" fill="white"/>
<path d="M93.5322 25.449C92.6473 25.449 91.8473 25.2854 91.1322 24.9581C90.417 24.6248 89.8504 24.1429 89.4322 23.5126C89.0201 22.8823 88.814 22.1096 88.814 21.1945C88.814 20.4066 88.9655 19.7581 89.2685 19.249C89.5716 18.7399 89.9807 18.3369 90.4958 18.0399C91.011 17.7429 91.5867 17.5187 92.2231 17.3672C92.8595 17.2157 93.5079 17.1005 94.1685 17.0217C95.0049 16.9248 95.6837 16.846 96.2049 16.7854C96.7261 16.7187 97.1049 16.6126 97.3413 16.4672C97.5776 16.3217 97.6958 16.0854 97.6958 15.7581V15.6945C97.6958 14.9005 97.4716 14.2854 97.0231 13.849C96.5807 13.4126 95.9201 13.1945 95.0413 13.1945C94.1261 13.1945 93.4049 13.3975 92.8776 13.8035C92.3564 14.2035 91.9958 14.649 91.7958 15.1399L89.2413 14.5581C89.5443 13.7096 89.9867 13.0248 90.5686 12.5035C91.1564 11.9763 91.8322 11.5945 92.5958 11.3581C93.3595 11.1157 94.1625 10.9945 95.0049 10.9945C95.5625 10.9945 96.1534 11.0611 96.7776 11.1945C97.4079 11.3217 97.9958 11.5581 98.5413 11.9035C99.0928 12.249 99.5443 12.7429 99.8958 13.3854C100.247 14.0217 100.423 14.849 100.423 15.8672V25.1399H97.7685V23.2308H97.6595C97.4837 23.5823 97.2201 23.9278 96.8685 24.2672C96.517 24.6066 96.0655 24.8884 95.514 25.1126C94.9625 25.3369 94.3019 25.449 93.5322 25.449ZM94.1231 23.2672C94.8746 23.2672 95.517 23.1187 96.0504 22.8217C96.5898 22.5248 96.9989 22.1369 97.2776 21.6581C97.5625 21.1732 97.7049 20.6551 97.7049 20.1035V18.3035C97.6079 18.4005 97.4201 18.4914 97.1413 18.5763C96.8685 18.6551 96.5564 18.7248 96.2049 18.7854C95.8534 18.8399 95.511 18.8914 95.1776 18.9399C94.8443 18.9823 94.5655 19.0187 94.3413 19.049C93.814 19.1157 93.3322 19.2278 92.8958 19.3854C92.4655 19.5429 92.1201 19.7702 91.8595 20.0672C91.6049 20.3581 91.4776 20.746 91.4776 21.2308C91.4776 21.9035 91.7261 22.4126 92.2231 22.7581C92.7201 23.0975 93.3534 23.2672 94.1231 23.2672Z" fill="white"/>
<path d="M113.739 14.5854L111.276 15.0217C111.173 14.7066 111.009 14.4066 110.785 14.1217C110.566 13.8369 110.269 13.6035 109.894 13.4217C109.518 13.2399 109.048 13.149 108.485 13.149C107.715 13.149 107.073 13.3217 106.557 13.6672C106.042 14.0066 105.785 14.446 105.785 14.9854C105.785 15.452 105.957 15.8278 106.303 16.1126C106.648 16.3975 107.206 16.6308 107.976 16.8126L110.194 17.3217C111.479 17.6187 112.436 18.0763 113.066 18.6945C113.697 19.3126 114.012 20.1157 114.012 21.1035C114.012 21.9399 113.769 22.6854 113.285 23.3399C112.806 23.9884 112.136 24.4975 111.276 24.8672C110.421 25.2369 109.43 25.4217 108.303 25.4217C106.739 25.4217 105.463 25.0884 104.476 24.4217C103.488 23.749 102.882 22.7945 102.657 21.5581L105.285 21.1581C105.448 21.8429 105.785 22.3611 106.294 22.7126C106.803 23.0581 107.466 23.2308 108.285 23.2308C109.176 23.2308 109.888 23.046 110.421 22.6763C110.954 22.3005 111.221 21.8429 111.221 21.3035C111.221 20.8672 111.057 20.5005 110.73 20.2035C110.409 19.9066 109.915 19.6823 109.248 19.5308L106.885 19.0126C105.582 18.7157 104.618 18.2429 103.994 17.5945C103.376 16.946 103.066 16.1248 103.066 15.1308C103.066 14.3066 103.297 13.5854 103.757 12.9672C104.218 12.349 104.854 11.8672 105.666 11.5217C106.479 11.1702 107.409 10.9945 108.457 10.9945C109.966 10.9945 111.154 11.3217 112.021 11.9763C112.888 12.6248 113.46 13.4945 113.739 14.5854Z" fill="white"/>
<path d="M99.105 9.5V7.9L109.505 1.5L119.905 7.9V29.5H97.505" stroke="white" stroke-width="2.24"/>
</svg>
